<?xml version="1.0" encoding="UTF-8" standalone="no"?>
<!-- Created with Inkscape (http://www.inkscape.org/) -->

<svg
   xmlns:dc="http://purl.org/dc/elements/1.1/"
   xmlns:cc="http://creativecommons.org/ns#"
   xmlns:rdf="http://www.w3.org/1999/02/22-rdf-syntax-ns#"
   xmlns:svg="http://www.w3.org/2000/svg"
   xmlns="http://www.w3.org/2000/svg"
   xmlns:sodipodi="http://sodipodi.sourceforge.net/DTD/sodipodi-0.dtd"
   xmlns:inkscape="http://www.inkscape.org/namespaces/inkscape"
   width="40"
   height="40"
   viewBox="0 0 10.583333 10.583334"
   version="1.1"
   id="svg2298"
   inkscape:version="0.92.2 (30a58d1, 2017-08-07)"
   sodipodi:docname="knot.svg">
  <defs
     id="defs2292" />
  <sodipodi:namedview
     id="base"
     pagecolor="#ffffff"
     bordercolor="#666666"
     borderopacity="1.0"
     inkscape:pageopacity="0.0"
     inkscape:pageshadow="2"
     inkscape:zoom="20.847879"
     inkscape:cx="20.813367"
     inkscape:cy="21.437815"
     inkscape:document-units="mm"
     inkscape:current-layer="layer1"
     showgrid="false"
     units="px"
     inkscape:pagecheckerboard="true"
     inkscape:window-width="1855"
     inkscape:window-height="1056"
     inkscape:window-x="65"
     inkscape:window-y="24"
     inkscape:window-maximized="1" />
  <metadata
     id="metadata2295">
    <rdf:RDF>
      <cc:Work
         rdf:about="">
        <dc:format>image/svg+xml</dc:format>
        <dc:type
           rdf:resource="http://purl.org/dc/dcmitype/StillImage" />
        <dc:title></dc:title>
      </cc:Work>
    </rdf:RDF>
  </metadata>
  <g
     inkscape:label="Layer 1"
     inkscape:groupmode="layer"
     id="layer1"
     transform="translate(0,-286.41665)">
    <rect
       style="fill:none;fill-opacity:1;stroke:#fffff4;stroke-width:0.79374999;stroke-linecap:round;stroke-miterlimit:4;stroke-dasharray:none;stroke-opacity:1"
       id="rect2849"
       width="3.9469442"
       height="3.8327239"
       x="3.363152"
       y="289.55029"
       rx="1.3877792e-16" />
    <path
       style="fill:none;fill-opacity:1;stroke:#fffff4;stroke-width:0.79374999;stroke-linecap:round;stroke-miterlimit:4;stroke-dasharray:none;stroke-opacity:1"
       d="m 3.2743139,288.52229 c 2e-6,0.37845 -0.020171,0.94199 -0.020171,0.94199 0,0 -0.7143286,0.01 -0.9316647,0.01 -0.5957776,0 -1.1168234,-0.40683 -1.1168203,-1.00261 2.4e-6,-0.59578 0.4829732,-1.07875 1.0787469,-1.07875 0.5957737,0 0.9899065,0.53374 0.9899089,1.12951 z"
       id="path2851"
       inkscape:connector-curvature="0"
       sodipodi:nodetypes="ccscsc" />
    <path
       style="fill:none;fill-opacity:1;stroke:#fffff4;stroke-width:0.79374999;stroke-linecap:round;stroke-miterlimit:4;stroke-dasharray:none;stroke-opacity:1"
       d="m 8.2522753,289.5573 c -0.3784136,0.005 -0.942179,-0.007 -0.942179,-0.007 0,0 -0.019893,-0.71412 -0.022904,-0.93144 -0.00826,-0.59572 0.3913117,-1.12235 0.9870346,-1.1306 0.5957329,-0.008 1.0853363,0.46799 1.0935884,1.06371 0.00825,0.59571 -0.5199774,0.9972 -1.1156902,1.00545 z"
       id="path2851-9"
       inkscape:connector-curvature="0"
       sodipodi:nodetypes="ccscsc" />
    <path
       style="fill:none;fill-opacity:1;stroke:#fffff4;stroke-width:0.79374999;stroke-linecap:round;stroke-miterlimit:4;stroke-dasharray:none;stroke-opacity:1"
       d="m 7.2953753,294.32513 c -0.00219,-0.37845 0.014721,-0.9421 0.014721,-0.9421 0,0 0.7142588,-0.0141 0.9315914,-0.0154 0.5957675,-0.003 1.1191584,0.40036 1.1226023,0.99613 0.00344,0.59578 -0.4767237,1.08152 -1.0724875,1.08497 -0.5957637,0.003 -0.992978,-0.528 -0.9964274,-1.12376 z"
       id="path2851-2"
       inkscape:connector-curvature="0"
       sodipodi:nodetypes="ccscsc" />
    <path
       style="fill:none;fill-opacity:1;stroke:#fffff4;stroke-width:0.79374999;stroke-linecap:round;stroke-miterlimit:4;stroke-dasharray:none;stroke-opacity:1"
       d="m 2.4211819,293.36193 c 0.3784498,3.7e-4 0.9419701,0.0211 0.9419701,0.0211 0,0 0.00931,0.71434 0.0091,0.93168 -5.649e-4,0.59577 -0.4078975,1.11643 -1.0036772,1.11585 -0.5957897,-5.8e-4 -1.0782834,-0.48401 -1.0777085,-1.07979 5.748e-4,-0.59577 0.5346949,-0.98939 1.1304646,-0.98882 z"
       id="path2851-28"
       inkscape:connector-curvature="0"
       sodipodi:nodetypes="ccscsc" />
  </g>
</svg>
